<svg width="163" height="163" viewBox="0 0 163 163" fill="none" xmlns="http://www.w3.org/2000/svg">
<path fill-rule="evenodd" clip-rule="evenodd" d="M71.668 26.0131C69.9975 26.2565 68.3613 26.6949 66.7929 27.3194C57.4561 31.0368 51.917 40.7027 53.4302 50.6377L53.6397 52.0134C53.8993 53.718 54.347 55.3886 54.9744 56.9947L61.1499 72.8013C75.9269 71.7964 90.7596 71.8835 105.527 73.0624L115.626 73.8686C122.16 74.3903 127.496 79.3025 128.556 85.7717C130.997 100.682 130.997 115.89 128.556 130.8C127.496 137.269 122.16 142.181 115.626 142.703L105.527 143.509C89.5825 144.782 73.5619 144.782 57.6174 143.509L47.5185 142.703C40.9839 142.181 35.648 137.269 34.5887 130.8C32.1473 115.89 32.1473 100.682 34.5887 85.7717C35.648 79.3025 40.9839 74.3903 47.5185 73.8686L50.6005 73.6226L45.5436 60.6792C44.6441 58.3767 44.0023 55.9817 43.6301 53.5379L43.4206 52.1622C41.1981 37.5698 49.3339 23.3726 63.0476 17.9126C65.3513 16.9954 67.7545 16.3514 70.2082 15.9939C84.8146 13.8656 98.959 22.0928 104.33 35.8414L104.837 37.1376C105.736 39.4401 106.378 41.8351 106.75 44.2789L107.704 50.543C107.985 52.3857 106.719 54.107 104.876 54.3877L101.539 54.8958C99.6968 55.1765 97.9754 53.9102 97.6948 52.0675L96.7408 45.8034C96.4811 44.0988 96.0335 42.4282 95.406 40.8221L94.8996 39.526C91.2426 30.1654 81.6126 24.5641 71.668 26.0131ZM81.572 98.1608C75.9801 98.1608 71.447 102.694 71.447 108.286C71.447 113.878 75.9801 118.411 81.572 118.411C87.1639 118.411 91.697 113.878 91.697 108.286C91.697 102.694 87.1639 98.1608 81.572 98.1608Z" fill="#1E89A9"/>
</svg>
