<svg width="97" height="93" viewBox="0 0 97 93" fill="none" xmlns="http://www.w3.org/2000/svg">
<rect width="97" height="93" rx="16" fill="#14142B"/>
<path d="M29.2422 73V16.9844H49.6328C55.8828 16.9844 60.6875 18.1302 64.0469 20.4219C67.4062 22.7135 69.0859 25.9427 69.0859 30.1094C69.0859 33.1302 68.0573 35.7734 66 38.0391C63.9688 40.3047 61.3646 41.8802 58.1875 42.7656V42.9219C62.1719 43.4167 65.349 44.888 67.7188 47.3359C70.1146 49.7839 71.3125 52.7656 71.3125 56.2812C71.3125 61.4115 69.4766 65.487 65.8047 68.5078C62.1328 71.5026 57.1198 73 50.7656 73H29.2422ZM41.8594 26.2812V39.5625H47.4062C50.0104 39.5625 52.0547 38.9375 53.5391 37.6875C55.0495 36.4115 55.8047 34.6667 55.8047 32.4531C55.8047 28.3385 52.7318 26.2812 46.5859 26.2812H41.8594ZM41.8594 48.9375V63.7031H48.6953C51.612 63.7031 53.8906 63.026 55.5312 61.6719C57.1979 60.3177 58.0312 58.4688 58.0312 56.125C58.0312 53.8854 57.2109 52.1276 55.5703 50.8516C53.9557 49.5755 51.6901 48.9375 48.7734 48.9375H41.8594Z" fill="white"/>
</svg>
