<svg width="97" height="93" viewBox="0 0 97 93" fill="none" xmlns="http://www.w3.org/2000/svg">
<rect width="97" height="93" rx="16" fill="#14142B"/>
<path d="M70.1016 71.0078C66.013 72.987 60.6745 73.9766 54.0859 73.9766C45.4922 73.9766 38.7344 71.4505 33.8125 66.3984C28.8906 61.3464 26.4297 54.6146 26.4297 46.2031C26.4297 37.2448 29.1901 29.9792 34.7109 24.4062C40.2578 18.8333 47.4453 16.0469 56.2734 16.0469C61.7422 16.0469 66.3516 16.737 70.1016 18.1172V30.2656C66.3516 28.026 62.0807 26.9062 57.2891 26.9062C52.0286 26.9062 47.7839 28.5599 44.5547 31.8672C41.3255 35.1745 39.7109 39.6536 39.7109 45.3047C39.7109 50.7214 41.2344 55.0443 44.2812 58.2734C47.3281 61.4766 51.4297 63.0781 56.5859 63.0781C61.5078 63.0781 66.013 61.8802 70.1016 59.4844V71.0078Z" fill="white"/>
</svg>
