<svg width="133" height="99" viewBox="0 0 133 99" fill="none" xmlns="http://www.w3.org/2000/svg">
<path d="M35.3345 0.348389C16.5637 0.348389 0.571976 14.3837 0.571976 32.612C0.571976 45.187 6.46031 55.7739 14.2643 64.5438C22.0414 73.2835 32.0752 80.6195 41.146 86.7595L56.7967 97.3532C58.5107 98.5134 60.7583 98.5134 62.4723 97.3532L78.1229 86.7595C81.0234 84.7961 84.0224 82.7105 87.0146 80.4958C87.7972 79.9165 88.0466 78.8589 87.6144 77.9864L78.4154 59.4164C77.981 58.5395 76.7871 58.4017 76.1643 59.1566L75.673 59.752C73.1085 62.8606 69.2893 64.6609 65.2595 64.6609H52.8845C45.4286 64.6609 39.3845 58.6167 39.3845 51.1609C39.3845 43.705 45.4286 37.6609 52.8845 37.6609H57.623C58.4289 37.6609 59.1928 37.3008 59.7057 36.6791L70.3147 23.8197C73.2732 20.2336 77.8688 18.4221 82.4785 19.0248C87.0883 19.6276 91.0636 22.5598 93.0006 26.786L98.4189 38.6078C98.9873 39.848 100.603 40.1786 101.782 39.4919C103.788 38.3232 106.114 37.6609 108.572 37.6609H116.594C117.613 37.6609 118.479 36.9037 118.563 35.8879C118.651 34.8113 118.697 33.7193 118.697 32.612C118.697 14.3837 102.705 0.348389 83.9345 0.348389C74.2585 0.348389 65.7443 4.88532 59.6345 10.7558C53.5247 4.88533 45.0104 0.348389 35.3345 0.348389Z" fill="#1E89A9"/>
<path d="M85.3304 30.3016C84.604 28.7167 83.1132 27.6171 81.3846 27.3911C79.6559 27.1651 77.9326 27.8444 76.8231 29.1892L62.8731 46.0984H52.8845C50.0885 46.0984 47.822 48.3649 47.822 51.1609C47.822 53.9568 50.0885 56.2234 52.8845 56.2234H65.2595C66.7707 56.2234 68.2029 55.5483 69.1646 54.3826L79.4921 41.8643L91.5948 68.2702C92.3212 69.855 93.812 70.9546 95.5406 71.1806C97.2693 71.4067 98.9926 70.7274 100.102 69.3826L110.958 56.2234H127.134C129.93 56.2234 132.197 53.9568 132.197 51.1609C132.197 48.3649 129.93 46.0984 127.134 46.0984H108.572C107.061 46.0984 105.629 46.7735 104.667 47.9392L97.4331 56.7075L85.3304 30.3016Z" fill="#1E89A9"/>
</svg>
