<svg width="68" height="68" viewBox="0 0 68 68" fill="none" xmlns="http://www.w3.org/2000/svg">
<path fill-rule="evenodd" clip-rule="evenodd" d="M55.9583 34C55.9583 32.8264 55.0069 31.875 53.8333 31.875H14.1666C12.993 31.875 12.0416 32.8264 12.0416 34C12.0416 35.1736 12.993 36.125 14.1666 36.125H53.8333C55.0069 36.125 55.9583 35.1736 55.9583 34Z" fill="white"/>
<path fill-rule="evenodd" clip-rule="evenodd" d="M55.9583 19.8333C55.9583 18.6597 55.0069 17.7083 53.8333 17.7083H14.1666C12.993 17.7083 12.0416 18.6597 12.0416 19.8333C12.0416 21.0069 12.993 21.9583 14.1666 21.9583H53.8333C55.0069 21.9583 55.9583 21.0069 55.9583 19.8333Z" fill="white"/>
<path fill-rule="evenodd" clip-rule="evenodd" d="M55.9583 48.1667C55.9583 46.9931 55.0069 46.0417 53.8333 46.0417H14.1666C12.993 46.0417 12.0416 46.9931 12.0416 48.1667C12.0416 49.3403 12.993 50.2917 14.1666 50.2917H53.8333C55.0069 50.2917 55.9583 49.3403 55.9583 48.1667Z" fill="white"/>
</svg>
