<svg width="40" height="41" viewBox="0 0 40 41" fill="none" xmlns="http://www.w3.org/2000/svg">
<path fill-rule="evenodd" clip-rule="evenodd" d="M23.0138 14.5791C21.0264 14.3569 18.9736 14.3569 16.9862 14.5791C15.4895 14.7463 14.2766 15.9243 14.0994 17.4395C13.8616 19.4729 13.8616 21.5271 14.0994 23.5605C14.2766 25.0757 15.4895 26.2537 16.9862 26.4209C18.9736 26.6431 21.0264 26.6431 23.0138 26.4209C24.5105 26.2537 25.7233 25.0757 25.9006 23.5605C26.1384 21.5271 26.1384 19.4729 25.9006 17.4395C25.7233 15.9243 24.5105 14.7463 23.0138 14.5791ZM17.2639 17.0636C19.0667 16.8621 20.9333 16.8621 22.7361 17.0636C23.0962 17.1038 23.3777 17.3895 23.4175 17.73C23.6327 19.5704 23.6327 21.4296 23.4175 23.27C23.3777 23.6105 23.0962 23.8962 22.7361 23.9364C20.9333 24.1379 19.0667 24.1379 17.2639 23.9364C16.9038 23.8962 16.6223 23.6105 16.5825 23.27C16.3672 21.4296 16.3672 19.5704 16.5825 17.73C16.6223 17.3895 16.9038 17.1038 17.2639 17.0636Z" fill="white"/>
<path fill-rule="evenodd" clip-rule="evenodd" d="M26.25 5.5C26.25 4.80964 25.6904 4.25 25 4.25C24.3096 4.25 23.75 4.80964 23.75 5.5V9.70603C22.9195 9.6477 22.0854 9.60884 21.25 9.58943V7.16667C21.25 6.47631 20.6904 5.91667 20 5.91667C19.3096 5.91667 18.75 6.47631 18.75 7.16667V9.58943C17.9146 9.60884 17.0805 9.6477 16.25 9.70603V5.5C16.25 4.80964 15.6904 4.25 15 4.25C14.3096 4.25 13.75 4.80964 13.75 5.5V9.95338C11.5834 10.348 9.85417 12.0598 9.47984 14.25H5C4.30964 14.25 3.75 14.8096 3.75 15.5C3.75 16.1904 4.30964 16.75 5 16.75H9.229C9.16815 17.5825 9.12759 18.416 9.10732 19.25H6.66667C5.97631 19.25 5.41667 19.8096 5.41667 20.5C5.41667 21.1904 5.97631 21.75 6.66667 21.75H9.10732C9.12759 22.584 9.16815 23.4175 9.229 24.25H5C4.30964 24.25 3.75 24.8096 3.75 25.5C3.75 26.1904 4.30964 26.75 5 26.75H9.47984C9.85418 28.9401 11.5834 30.652 13.75 31.0466V35.5C13.75 36.1904 14.3096 36.75 15 36.75C15.6904 36.75 16.25 36.1904 16.25 35.5V31.294C17.0805 31.3523 17.9146 31.3912 18.75 31.4106V33.8333C18.75 34.5237 19.3096 35.0833 20 35.0833C20.6904 35.0833 21.25 34.5237 21.25 33.8333V31.4106C22.0854 31.3912 22.9195 31.3523 23.75 31.294V35.5C23.75 36.1904 24.3096 36.75 25 36.75C25.6904 36.75 26.25 36.1904 26.25 35.5V31.0466C28.4166 30.652 30.1458 28.9402 30.5202 26.75H35C35.6904 26.75 36.25 26.1904 36.25 25.5C36.25 24.8096 35.6904 24.25 35 24.25H30.771C30.8319 23.4175 30.8724 22.584 30.8927 21.75H33.3333C34.0237 21.75 34.5833 21.1904 34.5833 20.5C34.5833 19.8096 34.0237 19.25 33.3333 19.25H30.8927C30.8724 18.416 30.8319 17.5825 30.771 16.75H35C35.6904 16.75 36.25 16.1904 36.25 15.5C36.25 14.8096 35.6904 14.25 35 14.25H30.5202C30.1458 12.0598 28.4166 10.348 26.25 9.95338V5.5ZM14.3889 12.3849C18.0869 11.9716 21.9131 11.9716 25.6111 12.3849C26.8996 12.5289 27.9282 13.5464 28.0765 14.8147C28.5183 18.592 28.5183 22.408 28.0765 26.1853C27.9282 27.4536 26.8996 28.4711 25.6111 28.6151C21.9131 29.0284 18.0869 29.0284 14.3889 28.6151C13.1004 28.4711 12.0718 27.4536 11.9235 26.1853C11.4817 22.408 11.4817 18.592 11.9235 14.8147C12.0718 13.5464 13.1004 12.5289 14.3889 12.3849Z" fill="white"/>
</svg>
