<svg width="162" height="162" viewBox="0 0 162 162" fill="none" xmlns="http://www.w3.org/2000/svg">
<path fill-rule="evenodd" clip-rule="evenodd" d="M138.58 30.5797C140.557 28.6027 140.557 25.3973 138.58 23.4203C136.603 21.4432 133.397 21.4432 131.42 23.4203L23.4203 131.42C21.4432 133.397 21.4432 136.603 23.4203 138.58C25.3973 140.557 28.6027 140.557 30.5797 138.58L51.0661 118.093C59.9614 122.197 70.145 124.875 81 124.875C98.67 124.875 114.561 117.778 126.012 108.99C131.744 104.59 136.448 99.7034 139.749 94.9477C142.986 90.2825 145.125 85.3771 145.125 81C145.125 76.6229 142.986 71.7175 139.749 67.0523C136.448 62.2966 131.744 57.41 126.012 53.0101C124.185 51.6083 122.246 50.2495 120.204 48.9556L138.58 30.5797ZM102.119 67.0407L94.7074 74.4521C95.6562 76.4347 96.1875 78.6553 96.1875 81C96.1875 89.3878 89.3878 96.1875 81 96.1875C78.6553 96.1875 76.4347 95.6562 74.4521 94.7074L67.0407 102.119C71.0423 104.769 75.8409 106.312 81 106.312C94.9797 106.312 106.312 94.9797 106.312 81C106.312 75.8409 104.769 71.0423 102.119 67.0407Z" fill="#1E89A9"/>
<path d="M86.2877 56.2406C86.3709 56.2583 86.4576 56.233 86.5178 56.1728L101.9 40.7907C102.032 40.6583 101.978 40.433 101.799 40.3769C95.2947 38.336 88.2991 37.125 81 37.125C63.33 37.125 47.4391 44.2219 35.9884 53.0101C30.2556 57.41 25.5517 62.2966 22.2513 67.0523C19.0138 71.7175 16.875 76.6229 16.875 81C16.875 85.3771 19.0138 90.2825 22.2513 94.9477C25.2677 99.2941 29.4565 103.75 34.5316 107.844C34.6308 107.924 34.7747 107.916 34.8648 107.826L56.1728 86.5178C56.233 86.4576 56.2583 86.3709 56.2406 86.2877C55.8782 84.5823 55.6875 82.8134 55.6875 81C55.6875 67.0203 67.0203 55.6875 81 55.6875C82.8134 55.6875 84.5823 55.8782 86.2877 56.2406Z" fill="#1E89A9"/>
</svg>
