<svg width="163" height="163" viewBox="0 0 163 163" fill="none" xmlns="http://www.w3.org/2000/svg">
<path d="M134.269 38.6711C136.281 40.3291 137.957 42.3852 139.174 44.7261C139.559 45.4668 139.271 46.3636 138.561 46.8031L96.2655 72.9859C87.1944 78.6013 75.7564 78.7191 66.5715 73.2917L23.9937 48.1321C23.3058 47.7256 22.9901 46.8889 23.3001 46.1524C24.5327 43.2244 26.4536 40.6712 28.8568 38.6864L28.8545 38.6663L28.9372 38.6203C30.7155 37.1675 32.7542 36.0243 34.9709 35.2682L62.7126 19.8562C74.4349 13.3438 88.6884 13.3438 100.411 19.8562L128.12 35.2502C130.375 36.0121 132.448 37.1745 134.25 38.656L134.269 38.6711Z" fill="#1E89A9"/>
<path d="M20.7467 60.7263C20.8694 59.5097 22.2127 58.8402 23.2654 59.4623L61.4207 82.0086C73.8472 89.3516 89.3222 89.1922 101.595 81.5948L139.696 58.0086C140.743 57.3599 142.11 58.017 142.242 59.2422C144.132 76.7076 143.77 94.3556 141.154 111.751C139.814 120.662 132.541 127.493 123.564 128.273L113.37 129.159C92.2113 130.999 70.9327 130.999 49.7739 129.159L39.5799 128.273C30.6027 127.493 23.3302 120.662 21.9903 111.751C19.4485 94.8481 19.034 77.7068 20.7467 60.7263Z" fill="#1E89A9"/>
</svg>
